<svg width="24" height="24" viewBox="0 0 24 24" fill="none" xmlns="http://www.w3.org/2000/svg">
<g clip-path="url(#clip0_1_131)">
<path d="M0 6.03934V8.66668H3.752L0 6.03934ZM3.10933 20.6667H8.66667V16.7753L3.10933 20.6667ZM15.3333 16.776V20.6667H20.89L15.3333 16.776ZM0 15.3333V17.9607L3.75333 15.3333H0ZM20.8913 3.33334H15.3333V7.22468L20.8913 3.33334ZM24 17.9613V15.3333H20.246L24 17.9613ZM24 8.66668V6.03934L20.2473 8.66668H24ZM8.66667 3.33334H3.10933L8.66667 7.22468V3.33334Z" fill="#00247D"/>
<path d="M16.7599 15.3333L23.2346 19.8673C23.5508 19.5416 23.7781 19.1401 23.8946 18.7013L19.0846 15.3333H16.7599ZM8.66661 15.3333H7.23928L0.765281 19.8667C1.11261 20.22 1.55795 20.4727 2.05728 20.59L8.66661 15.962V15.3333ZM15.3333 8.66667H16.7606L23.2346 4.13334C22.8813 3.77485 22.4335 3.52402 21.9433 3.41L15.3333 8.038V8.66667ZM7.23928 8.66667L0.765281 4.13334C0.44925 4.45932 0.221824 4.8607 0.104614 5.29934L4.91461 8.66667H7.23928Z" fill="#CF1B2B"/>
<path d="M24 14H14V20.6667H15.3333V16.776L20.89 20.6667H21.3333C21.6875 20.6667 22.0381 20.5961 22.3646 20.4588C22.6911 20.3215 22.9869 20.1205 23.2347 19.8673L16.76 15.3333H19.0847L23.8947 18.7013C23.9567 18.4767 24 18.244 24 18V17.9613L20.246 15.3333H24V14ZM0 14V15.3333H3.75333L0 17.9607V18C0 18.7273 0.292667 19.3853 0.765333 19.8667L7.23933 15.3333H8.66667V15.962L2.05733 20.5893C2.25333 20.636 2.456 20.6667 2.66667 20.6667H3.10933L8.66667 16.7753V20.6667H10V14H0ZM24 6.00001C24.0004 5.30133 23.7254 4.63065 23.2347 4.13334L16.7607 8.66668H15.3333V8.03801L21.9433 3.41001C21.7436 3.36103 21.5389 3.3353 21.3333 3.33334H20.8913L15.3333 7.22468V3.33334H14V10H24V8.66668H20.2473L24 6.03934V6.00001ZM8.66667 3.33334V7.22468L3.10933 3.33334H2.66667C2.31242 3.33319 1.96171 3.40389 1.63519 3.54127C1.30866 3.67866 1.01291 3.87997 0.765333 4.13334L7.23933 8.66668H4.91467L0.104667 5.29934C0.0385201 5.52715 0.00331561 5.76282 0 6.00001L0 6.03934L3.752 8.66668H0V10H10V3.33334H8.66667Z" fill="#EEEEEE"/>
<path d="M14 10V3.33334H10V10H0V14H10V20.6667H14V14H24V10H14Z" fill="#CF1B2B"/>
</g>
<defs>
<clipPath id="clip0_1_131">
<rect width="24" height="24" fill="white"/>
</clipPath>
</defs>
</svg>
